# xmcd
#
# Track frame offsets:
#	150
#	13746
#	27066
#	43326
#	56641
#	75300
#	86348
#	94310
#	111362
#	126798
#	138660
#	154061
#	174427
#	186346
#
# Disc length: 2714 seconds
#
# Revision: 0
# Processed by: cddbd v1.5.2PL0 Copyright (c) Steve Scherf et al.
# Submitted via: EasyCDDAExtractor 12.0.7.1
#
DISCID=b60a980e
DTITLE=L'INDIGO - MALOYA POWER
DYEAR=2011
DGENRE=Maloya
TTITLE0=Bal Gayar
TTITLE1=Domoun
TTITLE2=Joanes
TTITLE3=Beleza
TTITLE4=Buffalony
TTITLE5=Zalouzie
TTITLE6=Maloya Power
TTITLE7=Tangaty
TTITLE8=Madagasikara
TTITLE9=La Rua
TTITLE10=Xavier
TTITLE11=L'amour
TTITLE12=Yao
TTITLE13=Nou Nou Ve
EXTD=
EXTT0=
EXTT1=
EXTT2=
EXTT3=
EXTT4=
EXTT5=
EXTT6=
EXTT7=
EXTT8=
EXTT9=
EXTT10=
EXTT11=
EXTT12=
EXTT13=
PLAYORDER=
